<?xml version="1.0" encoding="UTF-8"?>
<!DOCTYPE svg PUBLIC "-//W3C//DTD SVG 1.1//EN" "http://www.w3.org/Graphics/SVG/1.1/DTD/svg11.dtd">
<svg xmlns="http://www.w3.org/2000/svg" version="1.1" width="90px" height="90px" style="shape-rendering:geometricPrecision; text-rendering:geometricPrecision; image-rendering:optimizeQuality; fill-rule:evenodd; clip-rule:evenodd" xmlns:xlink="http://www.w3.org/1999/xlink">
<g><path style="opacity:1" fill="#7a7163" d="M 47.5,-0.5 C 49.5,-0.5 51.5,-0.5 53.5,-0.5C 54.8333,0.166667 56.1667,0.833333 57.5,1.5C 56.7611,1.36899 56.0944,1.53566 55.5,2C 56.938,2.21893 58.2713,2.71893 59.5,3.5C 58.9747,4.19238 58.3081,4.69238 57.5,5C 59.4727,5.49546 61.4727,5.66212 63.5,5.5C 63.719,6.67504 63.3857,7.67504 62.5,8.5C 59.8971,7.43828 57.2305,7.27161 54.5,8C 61.5032,8.49656 61.8365,9.16322 55.5,10C 57.1667,10.3333 58.8333,10.6667 60.5,11C 57.6846,13.2544 55.518,12.7544 54,9.5C 52.3745,9.85405 50.5412,9.85405 48.5,9.5C 48.3841,6.14006 48.0508,2.80673 47.5,-0.5 Z"/></g>
<g><path style="opacity:1" fill="#7d7364" d="M 35.5,-0.5 C 36.8333,-0.5 38.1667,-0.5 39.5,-0.5C 39.9292,3.25676 39.2625,6.75676 37.5,10C 38.0509,11.3985 38.3842,12.7318 38.5,14C 37.5,14.3333 36.5,14.6667 35.5,15C 35.6192,16.2812 35.1192,17.4479 34,18.5C 33.0255,16.1224 32.3589,16.4557 32,19.5C 30.7964,18.5294 30.2964,17.5294 30.5,16.5C 26.5948,18.3947 22.9282,20.7281 19.5,23.5C 19.2208,20.8822 18.5541,18.3822 17.5,16C 19.6942,13.8255 22.3608,12.4921 25.5,12C 23.5,11 21.5,10 19.5,9C 20.8989,8.40544 22.2322,8.57211 23.5,9.5C 27.6196,6.75761 27.2863,6.09094 22.5,7.5C 21.537,7.03017 21.537,6.3635 22.5,5.5C 26.5063,2.72339 30.8396,0.723393 35.5,-0.5 Z"/></g>
<g><path style="opacity:1" fill="#706963" d="M 57.5,1.5 C 62.7528,2.79302 67.4194,5.12635 71.5,8.5C 70.7241,12.0525 69.3908,15.3858 67.5,18.5C 65.9504,19.7199 64.2837,19.7199 62.5,18.5C 60.6086,15.8283 57.9419,14.8283 54.5,15.5C 52.5,14.8333 50.5,14.1667 48.5,13.5C 48.5,12.1667 48.5,10.8333 48.5,9.5C 50.5412,9.85405 52.3745,9.85405 54,9.5C 55.518,12.7544 57.6846,13.2544 60.5,11C 58.8333,10.6667 57.1667,10.3333 55.5,10C 61.8365,9.16322 61.5032,8.49656 54.5,8C 57.2305,7.27161 59.8971,7.43828 62.5,8.5C 63.3857,7.67504 63.719,6.67504 63.5,5.5C 61.4727,5.66212 59.4727,5.49546 57.5,5C 58.3081,4.69238 58.9747,4.19238 59.5,3.5C 58.2713,2.71893 56.938,2.21893 55.5,2C 56.0944,1.53566 56.7611,1.36899 57.5,1.5 Z"/></g>
<g><path style="opacity:1" fill="#333538" d="M 71.5,8.5 C 72.5,8.83333 73.1667,9.5 73.5,10.5C 73.0584,14.0369 72.0584,17.3703 70.5,20.5C 69.7777,19.4489 68.7777,18.7822 67.5,18.5C 69.3908,15.3858 70.7241,12.0525 71.5,8.5 Z"/></g>
<g><path style="opacity:1" fill="#323a54" d="M 45.5,15.5 C 48.5,15.5 51.5,15.5 54.5,15.5C 57.9419,14.8283 60.6086,15.8283 62.5,18.5C 62.4142,19.4959 62.7476,20.3292 63.5,21C 61.0868,22.3461 58.7535,22.8461 56.5,22.5C 53.9587,21.3118 51.4587,19.9784 49,18.5C 47.5603,19.1476 46.0603,19.4809 44.5,19.5C 44.4326,18.0413 44.7659,16.7079 45.5,15.5 Z"/></g>
<g><path style="opacity:1" fill="#7b7269" d="M 39.5,-0.5 C 41.5,-0.5 43.5,-0.5 45.5,-0.5C 44.1078,4.83501 42.6078,10.1683 41,15.5C 35.8834,21.5644 31.3834,28.0644 27.5,35C 29.727,35.704 30.0603,36.8706 28.5,38.5C 27.7281,37.3065 26.7281,36.3065 25.5,35.5C 17.7965,32.4932 9.79655,31.1599 1.5,31.5C 1.5,31.1667 1.5,30.8333 1.5,30.5C 6.17853,30.6658 10.8452,30.4992 15.5,30C 14.8333,29.6667 14.1667,29.3333 13.5,29C 14.4933,26.6472 16.4933,24.8139 19.5,23.5C 22.9282,20.7281 26.5948,18.3947 30.5,16.5C 30.2964,17.5294 30.7964,18.5294 32,19.5C 32.3589,16.4557 33.0255,16.1224 34,18.5C 35.1192,17.4479 35.6192,16.2812 35.5,15C 36.5,14.6667 37.5,14.3333 38.5,14C 38.3842,12.7318 38.0509,11.3985 37.5,10C 39.2625,6.75676 39.9292,3.25676 39.5,-0.5 Z"/></g>
<g><path style="opacity:1" fill="#3b4048" d="M 48.5,13.5 C 50.5,14.1667 52.5,14.8333 54.5,15.5C 51.5,15.5 48.5,15.5 45.5,15.5C 43.1259,17.4013 42.9593,19.7346 45,22.5C 48.6874,20.1076 51.8541,20.7742 54.5,24.5C 53.7542,25.7362 53.4208,27.0695 53.5,28.5C 49.1621,26.3354 47.1621,27.6687 47.5,32.5C 46.1667,31.5 44.8333,30.5 43.5,29.5C 41.337,28.5309 39.0037,27.6976 36.5,27C 36.9574,26.586 37.2907,26.086 37.5,25.5C 36.8333,25.1667 36.1667,24.8333 35.5,24.5C 37.483,22.0163 39.6496,19.6829 42,17.5C 43.1365,13.7568 44.4698,10.0901 46,6.5C 45.9698,9.36148 46.8031,11.6948 48.5,13.5 Z"/></g>
<g><path style="opacity:1" fill="#232f44" d="M 62.5,18.5 C 64.2837,19.7199 65.9504,19.7199 67.5,18.5C 68.7777,18.7822 69.7777,19.4489 70.5,20.5C 70.2785,23.0673 69.6118,25.4006 68.5,27.5C 66.9826,27.5106 65.8159,28.1772 65,29.5C 64.6667,29.1667 64.3333,28.8333 64,28.5C 62.6718,32.0915 60.8385,32.4249 58.5,29.5C 58.2785,26.9327 57.6118,24.5994 56.5,22.5C 58.7535,22.8461 61.0868,22.3461 63.5,21C 62.7476,20.3292 62.4142,19.4959 62.5,18.5 Z"/></g>
<g><path style="opacity:1" fill="#827768" d="M 22.5,5.5 C 21.537,6.3635 21.537,7.03017 22.5,7.5C 27.2863,6.09094 27.6196,6.75761 23.5,9.5C 22.2322,8.57211 20.8989,8.40544 19.5,9C 21.5,10 23.5,11 25.5,12C 22.3608,12.4921 19.6942,13.8255 17.5,16C 18.5541,18.3822 19.2208,20.8822 19.5,23.5C 16.4933,24.8139 14.4933,26.6472 13.5,29C 14.1667,29.3333 14.8333,29.6667 15.5,30C 10.8452,30.4992 6.17853,30.6658 1.5,30.5C 5.32509,19.3541 12.3251,11.0208 22.5,5.5 Z"/></g>
<g><path style="opacity:1" fill="#2d3747" d="M 45.5,15.5 C 44.7659,16.7079 44.4326,18.0413 44.5,19.5C 46.0603,19.4809 47.5603,19.1476 49,18.5C 51.4587,19.9784 53.9587,21.3118 56.5,22.5C 57.6118,24.5994 58.2785,26.9327 58.5,29.5C 58.4431,30.609 58.1098,31.609 57.5,32.5C 57.1667,32.5 56.8333,32.5 56.5,32.5C 53.3915,32.2641 50.3915,32.5975 47.5,33.5C 47.5,33.1667 47.5,32.8333 47.5,32.5C 47.1621,27.6687 49.1621,26.3354 53.5,28.5C 53.4208,27.0695 53.7542,25.7362 54.5,24.5C 51.8541,20.7742 48.6874,20.1076 45,22.5C 42.9593,19.7346 43.1259,17.4013 45.5,15.5 Z"/></g>
<g><path style="opacity:1" fill="#363333" d="M 45.5,-0.5 C 46.1667,-0.5 46.8333,-0.5 47.5,-0.5C 48.0508,2.80673 48.3841,6.14006 48.5,9.5C 48.5,10.8333 48.5,12.1667 48.5,13.5C 46.8031,11.6948 45.9698,9.36148 46,6.5C 44.4698,10.0901 43.1365,13.7568 42,17.5C 39.6496,19.6829 37.483,22.0163 35.5,24.5C 36.1667,24.8333 36.8333,25.1667 37.5,25.5C 37.2907,26.086 36.9574,26.586 36.5,27C 39.0037,27.6976 41.337,28.5309 43.5,29.5C 42.2264,30.1894 42.2264,31.0228 43.5,32C 42.4232,32.4696 41.4232,32.3029 40.5,31.5C 39.1501,28.894 37.6501,28.894 36,31.5C 35.3083,32.4368 35.475,33.1034 36.5,33.5C 36.5,33.8333 36.5,34.1667 36.5,34.5C 36.1667,35.1667 35.8333,35.8333 35.5,36.5C 33.3198,37.1171 31.3198,38.1171 29.5,39.5C 28.8933,39.3764 28.56,39.0431 28.5,38.5C 30.0603,36.8706 29.727,35.704 27.5,35C 31.3834,28.0644 35.8834,21.5644 41,15.5C 42.6078,10.1683 44.1078,4.83501 45.5,-0.5 Z"/></g>
<g><path style="opacity:0.988" fill="#686461" d="M 74.5,11.5 C 82.0055,17.8255 87.0055,25.8255 89.5,35.5C 89.5,36.8333 89.5,38.1667 89.5,39.5C 88.5272,40.7914 87.5272,40.7914 86.5,39.5C 85.7689,43.1718 84.2689,43.8385 82,41.5C 80.7225,43.7472 79.2225,45.7472 77.5,47.5C 76.7839,47.2169 75.9506,46.8836 75,46.5C 73.513,47.2529 73.3463,48.0862 74.5,49C 71.1796,50.2613 70.8463,51.928 73.5,54C 73,54.5 72.5,55 72,55.5C 71.3621,52.3991 70.1954,49.7324 68.5,47.5C 70.0164,40.275 70.8498,32.9417 71,25.5C 72.4822,20.8916 73.6489,16.2249 74.5,11.5 Z"/></g>
<g><path style="opacity:1" fill="#6d5e5c" d="M 40.5,31.5 C 38.8007,31.5271 37.4674,32.1938 36.5,33.5C 35.475,33.1034 35.3083,32.4368 36,31.5C 37.6501,28.894 39.1501,28.894 40.5,31.5 Z"/></g>
<g><path style="opacity:1" fill="#2a1d1b" d="M 43.5,29.5 C 44.8333,30.5 46.1667,31.5 47.5,32.5C 47.5,32.8333 47.5,33.1667 47.5,33.5C 47.7678,35.099 47.4345,36.4324 46.5,37.5C 45.1667,37.8333 43.8333,38.1667 42.5,38.5C 41.6365,39.463 40.9698,39.463 40.5,38.5C 41.1667,37.5 41.8333,36.5 42.5,35.5C 40.604,34.5344 38.604,34.2011 36.5,34.5C 36.5,34.1667 36.5,33.8333 36.5,33.5C 37.4674,32.1938 38.8007,31.5271 40.5,31.5C 41.4232,32.3029 42.4232,32.4696 43.5,32C 42.2264,31.0228 42.2264,30.1894 43.5,29.5 Z"/></g>
<g><path style="opacity:1" fill="#2a345e" d="M 1.5,31.5 C 9.79655,31.1599 17.7965,32.4932 25.5,35.5C 25.2865,37.1439 25.6198,38.6439 26.5,40C 25.9341,40.9947 25.2674,41.828 24.5,42.5C 24.631,41.7611 24.4643,41.0944 24,40.5C 22.9887,41.3366 21.8221,41.67 20.5,41.5C 14.8574,38.074 10.1907,38.9074 6.5,44C 4.13412,44.4396 1.80079,44.9396 -0.5,45.5C -0.5,42.1667 -0.5,38.8333 -0.5,35.5C 0.166667,34.1667 0.833333,32.8333 1.5,31.5 Z"/></g>
<g><path style="opacity:1" fill="#142232" d="M 68.5,27.5 C 67.5975,30.3915 67.2641,33.3915 67.5,36.5C 66.5,36.5 65.5,36.5 64.5,36.5C 62.3523,36.6106 62.019,35.944 63.5,34.5C 61.6957,33.2319 59.6957,32.5652 57.5,32.5C 58.1098,31.609 58.4431,30.609 58.5,29.5C 60.8385,32.4249 62.6718,32.0915 64,28.5C 64.3333,28.8333 64.6667,29.1667 65,29.5C 65.8159,28.1772 66.9826,27.5106 68.5,27.5 Z"/></g>
<g><path style="opacity:1" fill="#21252c" d="M 73.5,10.5 C 74.1667,10.5 74.5,10.8333 74.5,11.5C 73.6489,16.2249 72.4822,20.8916 71,25.5C 70.8498,32.9417 70.0164,40.275 68.5,47.5C 68.5,47.8333 68.5,48.1667 68.5,48.5C 68.6633,50.8568 68.4966,53.1902 68,55.5C 66.3815,59.5302 64.8815,63.5302 63.5,67.5C 63.19,68.7383 62.69,68.7383 62,67.5C 61.5357,68.0944 61.369,68.7611 61.5,69.5C 60.7784,69.0825 60.2784,68.4158 60,67.5C 59.7996,69.3197 58.9663,70.653 57.5,71.5C 58.9193,67.9852 59.586,64.3186 59.5,60.5C 61.5906,61.8026 63.2572,61.3026 64.5,59C 65.1963,57.1072 66.0296,55.2738 67,53.5C 67.7891,51.2884 67.6225,49.2884 66.5,47.5C 66.5,46.8333 66.5,46.1667 66.5,45.5C 68.2461,41.6127 66.9127,39.4461 62.5,39C 63.756,38.5831 64.4226,37.7498 64.5,36.5C 65.5,36.5 66.5,36.5 67.5,36.5C 67.2641,33.3915 67.5975,30.3915 68.5,27.5C 69.6118,25.4006 70.2785,23.0673 70.5,20.5C 72.0584,17.3703 73.0584,14.0369 73.5,10.5 Z"/></g>
<g><path style="opacity:1" fill="#6d5349" d="M 36.5,34.5 C 38.604,34.2011 40.604,34.5344 42.5,35.5C 41.8333,36.5 41.1667,37.5 40.5,38.5C 40.9698,39.463 41.6365,39.463 42.5,38.5C 42.5,39.1667 42.5,39.8333 42.5,40.5C 40.8333,40.5 39.1667,40.5 37.5,40.5C 36.3995,39.3951 35.7329,38.0618 35.5,36.5C 35.8333,35.8333 36.1667,35.1667 36.5,34.5 Z"/></g>
<g><path style="opacity:1" fill="#36363d" d="M 50.5,43.5 C 49.1266,43.6567 47.7932,43.49 46.5,43C 47.8882,42.1107 47.7215,41.6107 46,41.5C 45.1268,41.7355 44.2935,42.0688 43.5,42.5C 43.2129,41.7997 42.8795,41.1331 42.5,40.5C 42.5,39.8333 42.5,39.1667 42.5,38.5C 43.8333,38.1667 45.1667,37.8333 46.5,37.5C 45.537,38.3635 45.537,39.0302 46.5,39.5C 48.3159,38.1851 49.9825,36.6851 51.5,35C 54.9507,34.2528 55.284,34.9195 52.5,37C 54.6044,37.4888 54.9378,38.6555 53.5,40.5C 53.1316,42.1753 52.1316,43.1753 50.5,43.5 Z"/></g>
<g><path style="opacity:1" fill="#0e121d" d="M 56.5,32.5 C 56.8333,32.5 57.1667,32.5 57.5,32.5C 59.6957,32.5652 61.6957,33.2319 63.5,34.5C 62.019,35.944 62.3523,36.6106 64.5,36.5C 64.4226,37.7498 63.756,38.5831 62.5,39C 66.9127,39.4461 68.2461,41.6127 66.5,45.5C 65.5655,44.4324 65.2322,43.099 65.5,41.5C 63.712,41.2148 62.0453,41.5481 60.5,42.5C 61.7178,43.8027 61.3845,44.8027 59.5,45.5C 60.1925,46.5178 60.8592,47.5178 61.5,48.5C 60.1751,49.9526 59.3418,49.6192 59,47.5C 58.8333,48 58.6667,48.5 58.5,49C 60.139,52.3023 60.8056,55.8023 60.5,59.5C 61.5,59.5 62.5,59.5 63.5,59.5C 63.9054,56.0135 64.9054,52.6801 66.5,49.5C 66.3764,48.8933 66.0431,48.56 65.5,48.5C 65.5,47.8333 65.8333,47.5 66.5,47.5C 67.6225,49.2884 67.7891,51.2884 67,53.5C 66.0296,55.2738 65.1963,57.1072 64.5,59C 63.2572,61.3026 61.5906,61.8026 59.5,60.5C 59.977,57.0825 58.977,54.4159 56.5,52.5C 56.5,51.8333 56.1667,51.5 55.5,51.5C 53.4966,50.1408 51.4966,48.8075 49.5,47.5C 47.871,45.8041 48.2043,44.8041 50.5,44.5C 52.5753,44.6984 54.5753,44.8651 56.5,45C 56.303,40.9845 56.303,36.8179 56.5,32.5 Z"/></g>
<g><path style="opacity:1" fill="#1a2b46" d="M 20.5,41.5 C 19.6184,43.3838 18.1184,44.7171 16,45.5C 15,44.1667 14,44.1667 13,45.5C 12.8142,47.9005 12.3142,50.2338 11.5,52.5C 9.92908,51.6906 8.26241,51.3573 6.5,51.5C 6.91772,58.8605 5.91772,59.1939 3.5,52.5C 2.31116,51.5713 0.977822,51.238 -0.5,51.5C -0.5,49.5 -0.5,47.5 -0.5,45.5C 1.80079,44.9396 4.13412,44.4396 6.5,44C 10.1907,38.9074 14.8574,38.074 20.5,41.5 Z"/></g>
<g><path style="opacity:1" fill="#1e2230" d="M 56.5,32.5 C 56.303,36.8179 56.303,40.9845 56.5,45C 54.5753,44.8651 52.5753,44.6984 50.5,44.5C 50.5,44.1667 50.5,43.8333 50.5,43.5C 52.1316,43.1753 53.1316,42.1753 53.5,40.5C 54.9378,38.6555 54.6044,37.4888 52.5,37C 55.284,34.9195 54.9507,34.2528 51.5,35C 49.9825,36.6851 48.3159,38.1851 46.5,39.5C 45.537,39.0302 45.537,38.3635 46.5,37.5C 47.4345,36.4324 47.7678,35.099 47.5,33.5C 50.3915,32.5975 53.3915,32.2641 56.5,32.5 Z"/></g>
<g><path style="opacity:0.962" fill="#625f61" d="M 89.5,39.5 C 89.5,44.1667 89.5,48.8333 89.5,53.5C 88.8333,54.8333 88.1667,56.1667 87.5,57.5C 84.4545,57.6582 81.6212,56.9915 79,55.5C 78.5172,56.448 78.3505,57.448 78.5,58.5C 77.7494,59.5735 76.7494,59.7401 75.5,59C 78.6275,56.0736 78.9609,52.9069 76.5,49.5C 76.8627,48.8165 77.1961,48.1499 77.5,47.5C 79.2225,45.7472 80.7225,43.7472 82,41.5C 84.2689,43.8385 85.7689,43.1718 86.5,39.5C 87.5272,40.7914 88.5272,40.7914 89.5,39.5 Z"/></g>
<g><path style="opacity:1" fill="#2d242a" d="M 37.5,40.5 C 39.1667,40.5 40.8333,40.5 42.5,40.5C 42.8795,41.1331 43.2129,41.7997 43.5,42.5C 44.2935,42.0688 45.1268,41.7355 46,41.5C 47.7215,41.6107 47.8882,42.1107 46.5,43C 47.7932,43.49 49.1266,43.6567 50.5,43.5C 50.5,43.8333 50.5,44.1667 50.5,44.5C 48.2043,44.8041 47.871,45.8041 49.5,47.5C 47.8828,46.962 46.2161,46.6287 44.5,46.5C 44.2648,45.9033 43.7648,45.5699 43,45.5C 41.4029,46.8847 39.5695,47.5514 37.5,47.5C 36.8333,47.5 36.1667,47.5 35.5,47.5C 35.8212,45.9519 36.8212,45.2852 38.5,45.5C 38.8633,43.0885 37.8633,41.5885 35.5,41C 36.0944,40.5357 36.7611,40.369 37.5,40.5 Z"/></g>
<g><path style="opacity:1" fill="#3e3f42" d="M 66.5,45.5 C 66.5,46.1667 66.5,46.8333 66.5,47.5C 65.8333,47.5 65.5,47.8333 65.5,48.5C 64.1667,48.5 62.8333,48.5 61.5,48.5C 60.8592,47.5178 60.1925,46.5178 59.5,45.5C 61.3845,44.8027 61.7178,43.8027 60.5,42.5C 62.0453,41.5481 63.712,41.2148 65.5,41.5C 65.2322,43.099 65.5655,44.4324 66.5,45.5 Z"/></g>
<g><path style="opacity:1" fill="#625e5c" d="M 77.5,47.5 C 77.1961,48.1499 76.8627,48.8165 76.5,49.5C 78.9609,52.9069 78.6275,56.0736 75.5,59C 76.7494,59.7401 77.7494,59.5735 78.5,58.5C 79.7879,60.0348 79.7879,61.7015 78.5,63.5C 77.5745,64.6405 76.7412,64.6405 76,63.5C 75.8184,66.2263 75.3184,68.8929 74.5,71.5C 73.3175,69.3546 71.8175,69.3546 70,71.5C 68.6936,70.0878 67.8603,68.4211 67.5,66.5C 68.0466,63.1738 68.5466,59.8404 69,56.5C 69.763,59.0635 70.263,59.0635 70.5,56.5C 70.0356,53.6507 69.3689,50.984 68.5,48.5C 68.5,48.1667 68.5,47.8333 68.5,47.5C 70.1954,49.7324 71.3621,52.3991 72,55.5C 72.5,55 73,54.5 73.5,54C 70.8463,51.928 71.1796,50.2613 74.5,49C 73.3463,48.0862 73.513,47.2529 75,46.5C 75.9506,46.8836 76.7839,47.2169 77.5,47.5 Z"/></g>
<g><path style="opacity:1" fill="#381f1b" d="M 44.5,46.5 C 46.2161,46.6287 47.8828,46.962 49.5,47.5C 51.4966,48.8075 53.4966,50.1408 55.5,51.5C 54.791,52.404 53.791,52.7373 52.5,52.5C 50.6459,52.39 48.6459,52.0566 46.5,51.5C 46.7093,50.914 47.0426,50.414 47.5,50C 45.8839,49.3848 44.5505,48.3848 43.5,47C 43.7284,46.6012 44.0618,46.4346 44.5,46.5 Z"/></g>
<g><path style="opacity:1" fill="#412c29" d="M 35.5,47.5 C 36.1667,47.5 36.8333,47.5 37.5,47.5C 37.5,47.8333 37.5,48.1667 37.5,48.5C 33.8333,50.1667 31.1667,52.8333 29.5,56.5C 28.3709,58.6282 28.2042,60.9615 29,63.5C 29.2233,65.8808 30.39,67.5475 32.5,68.5C 32.5,68.8333 32.5,69.1667 32.5,69.5C 31.391,69.4431 30.391,69.1098 29.5,68.5C 29.0113,67.0048 28.3446,65.6715 27.5,64.5C 27.3347,60.8183 27.5014,57.1516 28,53.5C 30.6633,51.6664 33.1633,49.6664 35.5,47.5 Z"/></g>
<g><path style="opacity:1" fill="#0f1629" d="M 61.5,48.5 C 62.8333,48.5 64.1667,48.5 65.5,48.5C 66.0431,48.56 66.3764,48.8933 66.5,49.5C 64.9054,52.6801 63.9054,56.0135 63.5,59.5C 62.5,59.5 61.5,59.5 60.5,59.5C 60.8056,55.8023 60.139,52.3023 58.5,49C 58.6667,48.5 58.8333,48 59,47.5C 59.3418,49.6192 60.1751,49.9526 61.5,48.5 Z"/></g>
<g><path style="opacity:1" fill="#2c2e3a" d="M 25.5,35.5 C 26.7281,36.3065 27.7281,37.3065 28.5,38.5C 28.56,39.0431 28.8933,39.3764 29.5,39.5C 31.3198,38.1171 33.3198,37.1171 35.5,36.5C 35.7329,38.0618 36.3995,39.3951 37.5,40.5C 36.7611,40.369 36.0944,40.5357 35.5,41C 37.8633,41.5885 38.8633,43.0885 38.5,45.5C 36.8212,45.2852 35.8212,45.9519 35.5,47.5C 33.1633,49.6664 30.6633,51.6664 28,53.5C 27.5014,57.1516 27.3347,60.8183 27.5,64.5C 26.207,63.158 25.3736,61.4913 25,59.5C 23.5187,60.4709 22.6854,61.8042 22.5,63.5C 21.8333,63.8333 21.1667,64.1667 20.5,64.5C 20.4376,58.7272 21.1043,53.0605 22.5,47.5C 23.9313,46.2196 24.5979,44.5529 24.5,42.5C 25.2674,41.828 25.9341,40.9947 26.5,40C 25.6198,38.6439 25.2865,37.1439 25.5,35.5 Z"/></g>
<g><path style="opacity:1" fill="#0f1e38" d="M 24.5,42.5 C 24.5979,44.5529 23.9313,46.2196 22.5,47.5C 21.8333,47.5 21.5,47.8333 21.5,48.5C 19.6693,49.0522 18.0026,49.0522 16.5,48.5C 14.5196,55.2456 12.353,61.9123 10,68.5C 9.58309,69.756 8.74975,70.4226 7.5,70.5C 3.99038,65.1513 1.32372,59.4846 -0.5,53.5C -0.5,52.8333 -0.5,52.1667 -0.5,51.5C 0.977822,51.238 2.31116,51.5713 3.5,52.5C 5.91772,59.1939 6.91772,58.8605 6.5,51.5C 8.26241,51.3573 9.92908,51.6906 11.5,52.5C 12.3142,50.2338 12.8142,47.9005 13,45.5C 14,44.1667 15,44.1667 16,45.5C 18.1184,44.7171 19.6184,43.3838 20.5,41.5C 21.8221,41.67 22.9887,41.3366 24,40.5C 24.4643,41.0944 24.631,41.7611 24.5,42.5 Z"/></g>
<g><path style="opacity:1" fill="#0b111f" d="M 22.5,47.5 C 21.1043,53.0605 20.4376,58.7272 20.5,64.5C 21.0508,67.8067 21.3841,71.1401 21.5,74.5C 20.1938,74.879 18.8605,75.2124 17.5,75.5C 14.6946,72.7152 14.8612,70.0486 18,67.5C 18.9657,62.8044 18.4657,58.3044 16.5,54C 18.3367,52.3751 20.0034,50.5418 21.5,48.5C 21.5,47.8333 21.8333,47.5 22.5,47.5 Z"/></g>
<g><path style="opacity:1" fill="#825645" d="M 44.5,46.5 C 44.0618,46.4346 43.7284,46.6012 43.5,47C 44.5505,48.3848 45.8839,49.3848 47.5,50C 47.0426,50.414 46.7093,50.914 46.5,51.5C 48.6459,52.0566 50.6459,52.39 52.5,52.5C 52.0825,53.2216 51.4158,53.7216 50.5,54C 54.121,55.6894 54.4544,57.856 51.5,60.5C 47.7811,56.7594 43.7811,56.5927 39.5,60C 42.9991,60.3028 46.3324,61.1362 49.5,62.5C 50.3235,64.4546 50.4901,66.4546 50,68.5C 49.3292,69.2524 48.4959,69.5858 47.5,69.5C 47.5,68.8333 47.5,68.1667 47.5,67.5C 47.67,66.1779 47.3366,65.0113 46.5,64C 44.257,62.8638 41.9237,62.0305 39.5,61.5C 37.9158,57.2107 39.5824,54.7107 44.5,54C 44.0572,49.7771 41.7238,47.9437 37.5,48.5C 37.5,48.1667 37.5,47.8333 37.5,47.5C 39.5695,47.5514 41.4029,46.8847 43,45.5C 43.7648,45.5699 44.2648,45.9033 44.5,46.5 Z"/></g>
<g><path style="opacity:1" fill="#b97d61" d="M 37.5,48.5 C 41.7238,47.9437 44.0572,49.7771 44.5,54C 39.5824,54.7107 37.9158,57.2107 39.5,61.5C 40.2341,62.7079 40.5674,64.0413 40.5,65.5C 32.1081,68.4199 28.4414,65.4199 29.5,56.5C 31.1667,52.8333 33.8333,50.1667 37.5,48.5 Z"/></g>
<g><path style="opacity:1" fill="#5c3424" d="M 51.5,60.5 C 51.5,61.8333 50.8333,62.5 49.5,62.5C 46.3324,61.1362 42.9991,60.3028 39.5,60C 43.7811,56.5927 47.7811,56.7594 51.5,60.5 Z"/></g>
<g><path style="opacity:1" fill="#9a6756" d="M 29.5,56.5 C 28.4414,65.4199 32.1081,68.4199 40.5,65.5C 40.5674,64.0413 40.2341,62.7079 39.5,61.5C 41.9237,62.0305 44.257,62.8638 46.5,64C 47.3366,65.0113 47.67,66.1779 47.5,67.5C 42.4187,66.4011 37.4187,66.7344 32.5,68.5C 30.39,67.5475 29.2233,65.8808 29,63.5C 28.2042,60.9615 28.3709,58.6282 29.5,56.5 Z"/></g>
<g><path style="opacity:1" fill="#453e41" d="M 56.5,52.5 C 58.977,54.4159 59.977,57.0825 59.5,60.5C 59.586,64.3186 58.9193,67.9852 57.5,71.5C 56.5987,72.2905 55.9321,73.2905 55.5,74.5C 54.5,74.5 53.5,74.5 52.5,74.5C 52.5,73.5 52.5,72.5 52.5,71.5C 55.8576,65.7176 57.191,59.3842 56.5,52.5 Z"/></g>
<g><path style="opacity:1" fill="#734531" d="M 47.5,67.5 C 47.5,68.1667 47.5,68.8333 47.5,69.5C 46.4863,70.6737 45.153,71.3404 43.5,71.5C 39.8881,70.5778 36.2215,69.9111 32.5,69.5C 32.5,69.1667 32.5,68.8333 32.5,68.5C 37.4187,66.7344 42.4187,66.4011 47.5,67.5 Z"/></g>
<g><path style="opacity:1" fill="#553e36" d="M 55.5,51.5 C 56.1667,51.5 56.5,51.8333 56.5,52.5C 57.191,59.3842 55.8576,65.7176 52.5,71.5C 49.3442,72.5511 46.3442,72.5511 43.5,71.5C 45.153,71.3404 46.4863,70.6737 47.5,69.5C 48.4959,69.5858 49.3292,69.2524 50,68.5C 50.4901,66.4546 50.3235,64.4546 49.5,62.5C 50.8333,62.5 51.5,61.8333 51.5,60.5C 54.4544,57.856 54.121,55.6894 50.5,54C 51.4158,53.7216 52.0825,53.2216 52.5,52.5C 53.791,52.7373 54.791,52.404 55.5,51.5 Z"/></g>
<g><path style="opacity:0.925" fill="#071427" d="M 21.5,48.5 C 20.0034,50.5418 18.3367,52.3751 16.5,54C 18.4657,58.3044 18.9657,62.8044 18,67.5C 14.8612,70.0486 14.6946,72.7152 17.5,75.5C 18.8605,75.2124 20.1938,74.879 21.5,74.5C 21.4249,77.2062 21.0916,79.8728 20.5,82.5C 15.0922,79.6353 10.7589,75.6353 7.5,70.5C 8.74975,70.4226 9.58309,69.756 10,68.5C 12.353,61.9123 14.5196,55.2456 16.5,48.5C 18.0026,49.0522 19.6693,49.0522 21.5,48.5 Z"/></g>
<g><path style="opacity:1" fill="#3e2b2b" d="M 32.5,69.5 C 36.2215,69.9111 39.8881,70.5778 43.5,71.5C 46.3442,72.5511 49.3442,72.5511 52.5,71.5C 52.5,72.5 52.5,73.5 52.5,74.5C 53.5,74.5 54.5,74.5 55.5,74.5C 47.2233,76.0434 39.5566,74.3767 32.5,69.5 Z"/></g>
<g><path style="opacity:0.912" fill="#5c5b5e" d="M 68.5,48.5 C 69.3689,50.984 70.0356,53.6507 70.5,56.5C 70.263,59.0635 69.763,59.0635 69,56.5C 68.5466,59.8404 68.0466,63.1738 67.5,66.5C 67.8603,68.4211 68.6936,70.0878 70,71.5C 71.8175,69.3546 73.3175,69.3546 74.5,71.5C 75.3184,68.8929 75.8184,66.2263 76,63.5C 76.7412,64.6405 77.5745,64.6405 78.5,63.5C 79.7879,61.7015 79.7879,60.0348 78.5,58.5C 78.3505,57.448 78.5172,56.448 79,55.5C 81.6212,56.9915 84.4545,57.6582 87.5,57.5C 84.8642,67.1253 79.5309,74.792 71.5,80.5C 69.5712,75.6285 66.9045,71.2951 63.5,67.5C 64.8815,63.5302 66.3815,59.5302 68,55.5C 68.4966,53.1902 68.6633,50.8568 68.5,48.5 Z"/></g>
<g><path style="opacity:1" fill="#091029" d="M 27.5,64.5 C 28.3446,65.6715 29.0113,67.0048 29.5,68.5C 29.5106,70.0174 30.1772,71.1841 31.5,72C 36.6041,73.6181 41.6041,75.4515 46.5,77.5C 41.8725,80.0651 37.2059,79.7317 32.5,76.5C 31.0944,77.6682 29.9277,77.3348 29,75.5C 28.4518,79.1704 27.9518,82.8371 27.5,86.5C 26.8333,86.1667 26.1667,85.8333 25.5,85.5C 24.607,78.2179 23.607,70.8846 22.5,63.5C 22.6854,61.8042 23.5187,60.4709 25,59.5C 25.3736,61.4913 26.207,63.158 27.5,64.5 Z"/></g>
<g><path style="opacity:1" fill="#1b2137" d="M 22.5,63.5 C 23.607,70.8846 24.607,78.2179 25.5,85.5C 23.6316,84.7368 21.9649,83.7368 20.5,82.5C 21.0916,79.8728 21.4249,77.2062 21.5,74.5C 21.3841,71.1401 21.0508,67.8067 20.5,64.5C 21.1667,64.1667 21.8333,63.8333 22.5,63.5 Z"/></g>
<g><path style="opacity:1" fill="#080a19" d="M 29.5,68.5 C 30.391,69.1098 31.391,69.4431 32.5,69.5C 39.5566,74.3767 47.2233,76.0434 55.5,74.5C 56.4959,74.5858 57.3292,74.2524 58,73.5C 58.1805,75.4884 58.0138,77.4884 57.5,79.5C 58.5,79.5 59.5,79.5 60.5,79.5C 60.5,81.8333 60.5,84.1667 60.5,86.5C 58.4855,87.9238 56.1522,88.5905 53.5,88.5C 53.9703,84.5571 54.137,80.8905 54,77.5C 51.5408,78.6489 49.0408,78.6489 46.5,77.5C 41.6041,75.4515 36.6041,73.6181 31.5,72C 30.1772,71.1841 29.5106,70.0174 29.5,68.5 Z"/></g>
<g><path style="opacity:0.989" fill="#01031c" d="M 46.5,77.5 C 49.0408,78.6489 51.5408,78.6489 54,77.5C 54.137,80.8905 53.9703,84.5571 53.5,88.5C 53.5,88.8333 53.5,89.1667 53.5,89.5C 47.5,89.5 41.5,89.5 35.5,89.5C 32.9188,88.5115 30.2521,87.5115 27.5,86.5C 27.9518,82.8371 28.4518,79.1704 29,75.5C 29.9277,77.3348 31.0944,77.6682 32.5,76.5C 37.2059,79.7317 41.8725,80.0651 46.5,77.5 Z"/></g>
<g><path style="opacity:0.962" fill="#0e1829" d="M 61.5,69.5 C 60.6765,71.4546 60.5099,73.4546 61,75.5C 62.1937,77.6234 62.8603,79.9568 63,82.5C 63.9947,83.0659 64.828,83.7326 65.5,84.5C 63.9505,85.4408 62.2838,86.1075 60.5,86.5C 60.5,84.1667 60.5,81.8333 60.5,79.5C 59.5,79.5 58.5,79.5 57.5,79.5C 58.0138,77.4884 58.1805,75.4884 58,73.5C 57.3292,74.2524 56.4959,74.5858 55.5,74.5C 55.9321,73.2905 56.5987,72.2905 57.5,71.5C 58.9663,70.653 59.7996,69.3197 60,67.5C 60.2784,68.4158 60.7784,69.0825 61.5,69.5 Z"/></g>
<g><path style="opacity:1" fill="#17253d" d="M 63.5,67.5 C 66.9045,71.2951 69.5712,75.6285 71.5,80.5C 69.7952,82.1921 67.7952,83.5254 65.5,84.5C 64.828,83.7326 63.9947,83.0659 63,82.5C 62.8603,79.9568 62.1937,77.6234 61,75.5C 60.5099,73.4546 60.6765,71.4546 61.5,69.5C 61.369,68.7611 61.5357,68.0944 62,67.5C 62.69,68.7383 63.19,68.7383 63.5,67.5 Z"/></g>
</svg>
